<svg width="368" height="99" viewBox="0 0 368 99" fill="none" xmlns="http://www.w3.org/2000/svg">
<path d="M17.5625 97H0.5V3.4375H17.5625V33C19.6042 31.4583 21.7083 30.375 23.875 29.75C26.0417 29.0833 28.25 28.75 30.5 28.75C34.625 28.75 38.5 29.5417 42.125 31.125C45.75 32.6667 48.8958 34.8125 51.5625 37.5625C54.2708 40.2708 56.3958 43.4583 57.9375 47.125C59.5208 50.75 60.3125 54.625 60.3125 58.75V97H43.125V58.75H43.25C43.25 57 42.9167 55.3542 42.25 53.8125C41.5833 52.2292 40.6667 50.8542 39.5 49.6875C38.3333 48.5208 36.9792 47.6042 35.4375 46.9375C33.8958 46.2708 32.25 45.9375 30.5 45.9375C28.7083 45.9375 27.0208 46.2708 25.4375 46.9375C23.8542 47.6042 22.4792 48.5208 21.3125 49.6875C20.1458 50.8542 19.2292 52.2292 18.5625 53.8125C17.8958 55.3542 17.5625 57 17.5625 58.75V97ZM99.125 80.625C99.7917 80.8333 100.458 80.9792 101.125 81.0625C101.792 81.1042 102.458 81.125 103.125 81.125C104.792 81.125 106.396 80.8958 107.938 80.4375C109.479 79.9792 110.917 79.3333 112.25 78.5C113.625 77.625 114.833 76.5833 115.875 75.375C116.958 74.125 117.833 72.75 118.5 71.25L131 83.8125C129.417 86.0625 127.583 88.0833 125.5 89.875C123.458 91.6667 121.229 93.1875 118.812 94.4375C116.438 95.6875 113.917 96.625 111.25 97.25C108.625 97.9167 105.917 98.25 103.125 98.25C98.4167 98.25 93.9792 97.375 89.8125 95.625C85.6875 93.875 82.0625 91.4375 78.9375 88.3125C75.8542 85.1875 73.4167 81.4792 71.625 77.1875C69.8333 72.8542 68.9375 68.1042 68.9375 62.9375C68.9375 57.6458 69.8333 52.8125 71.625 48.4375C73.4167 44.0625 75.8542 40.3333 78.9375 37.25C82.0625 34.1667 85.6875 31.7708 89.8125 30.0625C93.9792 28.3542 98.4167 27.5 103.125 27.5C105.917 27.5 108.646 27.8333 111.312 28.5C113.979 29.1667 116.5 30.125 118.875 31.375C121.292 32.625 123.542 34.1667 125.625 36C127.708 37.7917 129.542 39.8125 131.125 42.0625L99.125 80.625ZM107.875 45.4375C107.083 45.1458 106.292 44.9583 105.5 44.875C104.75 44.7917 103.958 44.75 103.125 44.75C100.792 44.75 98.5833 45.1875 96.5 46.0625C94.4583 46.8958 92.6667 48.1042 91.125 49.6875C89.625 51.2708 88.4375 53.1875 87.5625 55.4375C86.6875 57.6458 86.25 60.1458 86.25 62.9375C86.25 63.5625 86.2708 64.2708 86.3125 65.0625C86.3958 65.8542 86.5 66.6667 86.625 67.5C86.7917 68.2917 86.9792 69.0625 87.1875 69.8125C87.3958 70.5625 87.6667 71.2292 88 71.8125L107.875 45.4375ZM165.875 80.625C166.542 80.8333 167.208 80.9792 167.875 81.0625C168.542 81.1042 169.208 81.125 169.875 81.125C171.542 81.125 173.146 80.8958 174.688 80.4375C176.229 79.9792 177.667 79.3333 179 78.5C180.375 77.625 181.583 76.5833 182.625 75.375C183.708 74.125 184.583 72.75 185.25 71.25L197.75 83.8125C196.167 86.0625 194.333 88.0833 192.25 89.875C190.208 91.6667 187.979 93.1875 185.562 94.4375C183.188 95.6875 180.667 96.625 178 97.25C175.375 97.9167 172.667 98.25 169.875 98.25C165.167 98.25 160.729 97.375 156.562 95.625C152.438 93.875 148.812 91.4375 145.688 88.3125C142.604 85.1875 140.167 81.4792 138.375 77.1875C136.583 72.8542 135.688 68.1042 135.688 62.9375C135.688 57.6458 136.583 52.8125 138.375 48.4375C140.167 44.0625 142.604 40.3333 145.688 37.25C148.812 34.1667 152.438 31.7708 156.562 30.0625C160.729 28.3542 165.167 27.5 169.875 27.5C172.667 27.5 175.396 27.8333 178.062 28.5C180.729 29.1667 183.25 30.125 185.625 31.375C188.042 32.625 190.292 34.1667 192.375 36C194.458 37.7917 196.292 39.8125 197.875 42.0625L165.875 80.625ZM174.625 45.4375C173.833 45.1458 173.042 44.9583 172.25 44.875C171.5 44.7917 170.708 44.75 169.875 44.75C167.542 44.75 165.333 45.1875 163.25 46.0625C161.208 46.8958 159.417 48.1042 157.875 49.6875C156.375 51.2708 155.188 53.1875 154.312 55.4375C153.438 57.6458 153 60.1458 153 62.9375C153 63.5625 153.021 64.2708 153.062 65.0625C153.146 65.8542 153.25 66.6667 153.375 67.5C153.542 68.2917 153.729 69.0625 153.938 69.8125C154.146 70.5625 154.417 71.2292 154.75 71.8125L174.625 45.4375ZM226.625 11.875C226.625 13.4583 226.312 14.9375 225.688 16.3125C225.104 17.6875 224.292 18.8958 223.25 19.9375C222.208 20.9375 220.979 21.75 219.562 22.375C218.188 22.9583 216.708 23.25 215.125 23.25C213.542 23.25 212.042 22.9583 210.625 22.375C209.25 21.75 208.042 20.9375 207 19.9375C206 18.8958 205.188 17.6875 204.562 16.3125C203.979 14.9375 203.688 13.4583 203.688 11.875C203.688 10.3333 203.979 8.875 204.562 7.5C205.188 6.08333 206 4.875 207 3.875C208.042 2.83333 209.25 2.02083 210.625 1.4375C212.042 0.8125 213.542 0.5 215.125 0.5C216.708 0.5 218.188 0.8125 219.562 1.4375C220.979 2.02083 222.208 2.83333 223.25 3.875C224.292 4.875 225.104 6.08333 225.688 7.5C226.312 8.875 226.625 10.3333 226.625 11.875ZM223.688 97H206.5V30.0625H223.688V97ZM295.25 43.375L282.75 55.9375C282.125 54.1875 281.271 52.625 280.188 51.25C279.104 49.8333 277.875 48.6458 276.5 47.6875C275.167 46.7292 273.708 46 272.125 45.5C270.542 45 268.917 44.75 267.25 44.75C264.917 44.75 262.708 45.2292 260.625 46.1875C258.583 47.1458 256.792 48.5 255.25 50.25C253.75 51.9583 252.562 54 251.688 56.375C250.812 58.75 250.375 61.375 250.375 64.25C250.375 66.5833 250.812 68.7708 251.688 70.8125C252.562 72.8542 253.75 74.6458 255.25 76.1875C256.792 77.7292 258.583 78.9375 260.625 79.8125C262.708 80.6875 264.917 81.125 267.25 81.125C268.917 81.125 270.521 80.8958 272.062 80.4375C273.604 79.9792 275.042 79.3333 276.375 78.5C277.75 77.625 278.958 76.5833 280 75.375C281.083 74.125 281.958 72.75 282.625 71.25L295.125 83.8125C293.542 86.0625 291.708 88.0833 289.625 89.875C287.583 91.6667 285.354 93.1875 282.938 94.4375C280.562 95.6875 278.042 96.625 275.375 97.25C272.75 97.9167 270.042 98.25 267.25 98.25C262.542 98.25 258.104 97.375 253.938 95.625C249.812 93.8333 246.188 91.3958 243.062 88.3125C239.979 85.2292 237.542 81.625 235.75 77.5C233.958 73.375 233.062 68.9583 233.062 64.25C233.062 59.125 233.958 54.3333 235.75 49.875C237.542 45.4167 239.979 41.5417 243.062 38.25C246.188 34.9167 249.812 32.2917 253.938 30.375C258.104 28.4583 262.542 27.5 267.25 27.5C270.042 27.5 272.771 27.8542 275.438 28.5625C278.146 29.2708 280.708 30.3125 283.125 31.6875C285.583 33.0208 287.833 34.6667 289.875 36.625C291.958 38.5833 293.75 40.8333 295.25 43.375ZM367.312 62.9375C367.312 67.9375 366.417 72.6042 364.625 76.9375C362.833 81.2292 360.396 84.9583 357.312 88.125C354.229 91.25 350.604 93.7292 346.438 95.5625C342.312 97.3542 337.875 98.25 333.125 98.25C328.417 98.25 323.979 97.3542 319.812 95.5625C315.688 93.7292 312.062 91.25 308.938 88.125C305.854 84.9583 303.417 81.2292 301.625 76.9375C299.833 72.6042 298.938 67.9375 298.938 62.9375C298.938 57.8542 299.833 53.1458 301.625 48.8125C303.417 44.4792 305.854 40.75 308.938 37.625C312.062 34.4583 315.688 31.9792 319.812 30.1875C323.979 28.3958 328.417 27.5 333.125 27.5C337.875 27.5 342.312 28.3542 346.438 30.0625C350.604 31.7292 354.229 34.125 357.312 37.25C360.396 40.3333 362.833 44.0625 364.625 48.4375C366.417 52.7708 367.312 57.6042 367.312 62.9375ZM350.125 62.9375C350.125 60.1875 349.667 57.7083 348.75 55.5C347.875 53.25 346.667 51.3333 345.125 49.75C343.583 48.125 341.771 46.8958 339.688 46.0625C337.646 45.1875 335.458 44.75 333.125 44.75C330.792 44.75 328.583 45.1875 326.5 46.0625C324.458 46.8958 322.667 48.125 321.125 49.75C319.625 51.3333 318.438 53.25 317.562 55.5C316.688 57.7083 316.25 60.1875 316.25 62.9375C316.25 65.5208 316.688 67.9167 317.562 70.125C318.438 72.3333 319.625 74.25 321.125 75.875C322.667 77.5 324.458 78.7917 326.5 79.75C328.583 80.6667 330.792 81.125 333.125 81.125C335.458 81.125 337.646 80.6875 339.688 79.8125C341.771 78.9375 343.583 77.7083 345.125 76.125C346.667 74.5417 347.875 72.625 348.75 70.375C349.667 68.125 350.125 65.6458 350.125 62.9375Z" fill="white"/>
</svg>
