<svg width="249" height="83" viewBox="0 0 249 83" fill="none" xmlns="http://www.w3.org/2000/svg">
<path d="M84.64 47.64H99.424C99.776 47.64 100.08 47.768 100.336 48.024C100.592 48.28 100.72 48.584 100.72 48.936V55.704C100.72 56.056 100.592 56.36 100.336 56.616C100.08 56.872 99.776 57 99.424 57H74.416C74.064 57 73.76 56.872 73.504 56.616C73.248 56.36 73.12 56.056 73.12 55.704V24.696C73.12 24.344 73.248 24.04 73.504 23.784C73.76 23.528 74.064 23.4 74.416 23.4H99.04C99.392 23.4 99.696 23.528 99.952 23.784C100.208 24.04 100.336 24.344 100.336 24.696V31.464C100.336 31.816 100.208 32.12 99.952 32.376C99.696 32.632 99.392 32.76 99.04 32.76H84.64V35.784H97.984C98.336 35.784 98.64 35.912 98.896 36.168C99.152 36.424 99.28 36.728 99.28 37.08V43.32C99.28 43.672 99.152 43.976 98.896 44.232C98.64 44.488 98.336 44.616 97.984 44.616H84.64V47.64ZM118.015 47.64H132.799C133.151 47.64 133.455 47.768 133.711 48.024C133.967 48.28 134.095 48.584 134.095 48.936V55.704C134.095 56.056 133.967 56.36 133.711 56.616C133.455 56.872 133.151 57 132.799 57H107.791C107.439 57 107.135 56.872 106.879 56.616C106.623 56.36 106.495 56.056 106.495 55.704V24.696C106.495 24.344 106.623 24.04 106.879 23.784C107.135 23.528 107.439 23.4 107.791 23.4H132.415C132.767 23.4 133.071 23.528 133.327 23.784C133.583 24.04 133.711 24.344 133.711 24.696V31.464C133.711 31.816 133.583 32.12 133.327 32.376C133.071 32.632 132.767 32.76 132.415 32.76H118.015V35.784H131.359C131.711 35.784 132.015 35.912 132.271 36.168C132.527 36.424 132.655 36.728 132.655 37.08V43.32C132.655 43.672 132.527 43.976 132.271 44.232C132.015 44.488 131.711 44.616 131.359 44.616H118.015V47.64ZM150.958 57H141.166C140.814 57 140.51 56.872 140.254 56.616C139.998 56.36 139.87 56.056 139.87 55.704V24.696C139.87 24.344 139.998 24.04 140.254 23.784C140.51 23.528 140.814 23.4 141.166 23.4H150.958C151.31 23.4 151.614 23.528 151.87 23.784C152.126 24.04 152.254 24.344 152.254 24.696V55.704C152.254 56.056 152.126 56.36 151.87 56.616C151.614 56.872 151.31 57 150.958 57ZM169.999 36.168V44.232C169.999 46.824 171.183 48.12 173.551 48.12C175.375 48.12 176.575 47.256 177.151 45.528C177.311 44.984 177.503 44.616 177.727 44.424C177.983 44.232 178.383 44.136 178.927 44.136H188.719C189.007 44.136 189.247 44.248 189.439 44.472C189.663 44.664 189.775 44.904 189.775 45.192C189.775 47.976 188.975 50.312 187.375 52.2C184.431 55.72 179.839 57.48 173.599 57.48C168.703 57.48 164.799 56.408 161.887 54.264C158.975 52.088 157.519 48.76 157.519 44.28V36.12C157.519 31.736 159.007 28.44 161.983 26.232C164.959 24.024 168.831 22.92 173.599 22.92C179.839 22.92 184.431 24.68 187.375 28.2C188.975 30.088 189.775 32.424 189.775 35.208C189.775 35.496 189.663 35.752 189.439 35.976C189.247 36.168 189.007 36.264 188.719 36.264H178.927C178.415 36.264 178.031 36.168 177.775 35.976C177.551 35.784 177.343 35.416 177.151 34.872C176.543 33.144 175.343 32.28 173.551 32.28C171.183 32.28 169.999 33.576 169.999 36.168ZM197.747 26.472C200.691 24.104 204.579 22.92 209.411 22.92C214.243 22.92 218.115 24.12 221.027 26.52C223.971 28.888 225.443 32.232 225.443 36.552V44.04C225.443 48.424 223.987 51.768 221.075 54.072C218.195 56.344 214.307 57.48 209.411 57.48C204.515 57.48 200.611 56.344 197.699 54.072C194.819 51.768 193.379 48.424 193.379 44.04V36.552C193.379 32.2 194.835 28.84 197.747 26.472ZM206.819 47.16C207.459 47.8 208.323 48.12 209.411 48.12C210.499 48.12 211.363 47.8 212.003 47.16C212.643 46.52 212.963 45.544 212.963 44.232V36.168C212.963 34.888 212.643 33.928 212.003 33.288C211.363 32.616 210.499 32.28 209.411 32.28C208.323 32.28 207.459 32.616 206.819 33.288C206.179 33.928 205.859 34.888 205.859 36.168V44.232C205.859 45.544 206.179 46.52 206.819 47.16Z" fill="black"/>
<circle cx="35" cy="41" r="35" fill="#1880DF"/>
<path d="M40.192 23.4H49.6C49.952 23.4 50.256 23.528 50.512 23.784C50.768 24.04 50.896 24.344 50.896 24.696V55.704C50.896 56.056 50.768 56.36 50.512 56.616C50.256 56.872 49.952 57 49.6 57H40.192C39.84 57 39.536 56.872 39.28 56.616C39.024 56.36 38.896 56.056 38.896 55.704V45.336H31.12V55.704C31.12 56.056 30.992 56.36 30.736 56.616C30.48 56.872 30.176 57 29.824 57H20.416C20.064 57 19.76 56.888 19.504 56.664C19.248 56.408 19.12 56.088 19.12 55.704V24.696C19.12 24.344 19.248 24.04 19.504 23.784C19.76 23.528 20.064 23.4 20.416 23.4H29.824C30.176 23.4 30.48 23.528 30.736 23.784C30.992 24.04 31.12 24.344 31.12 24.696V34.776H38.896V24.696C38.896 24.344 39.024 24.04 39.28 23.784C39.536 23.528 39.84 23.4 40.192 23.4Z" fill="white"/>
</svg>
